<?xml version="1.0" encoding="UTF-8" standalone="no"?>
<!-- Created with Inkscape (http://www.inkscape.org/) -->
<svg
   xmlns:dc="http://purl.org/dc/elements/1.1/"
   xmlns:cc="http://web.resource.org/cc/"
   xmlns:rdf="http://www.w3.org/1999/02/22-rdf-syntax-ns#"
   xmlns:svg="http://www.w3.org/2000/svg"
   xmlns="http://www.w3.org/2000/svg"
   xmlns:sodipodi="http://sodipodi.sourceforge.net/DTD/sodipodi-0.dtd"
   xmlns:inkscape="http://www.inkscape.org/namespaces/inkscape"
   width="744.09448819"
   height="1052.3622047"
   id="svg2195"
   sodipodi:version="0.32"
   inkscape:version="0.45.1"
   sodipodi:docbase="/home/cstamas/Desktop"
   sodipodi:docname="maven-logo.svg"
   inkscape:output_extension="org.inkscape.output.svg.inkscape">
  <defs
     id="defs2197">
    <linearGradient
       id="linearGradient3161">
      <stop
         style="stop-color:#ff7f00;stop-opacity:1;"
         offset="0"
         id="stop3163" />
      <stop
         style="stop-color:#ffffff;stop-opacity:0;"
         offset="1"
         id="stop3165" />
    </linearGradient>
  </defs>
  <sodipodi:namedview
     id="base"
     pagecolor="#ffffff"
     bordercolor="#666666"
     borderopacity="1.0"
     gridtolerance="10000"
     guidetolerance="10"
     objecttolerance="10"
     inkscape:pageopacity="0.0"
     inkscape:pageshadow="2"
     inkscape:zoom="0.62571005"
     inkscape:cx="179.1683"
     inkscape:cy="530.75944"
     inkscape:document-units="px"
     inkscape:current-layer="layer1"
     inkscape:window-width="1238"
     inkscape:window-height="908"
     inkscape:window-x="16"
     inkscape:window-y="43" />
  <metadata
     id="metadata2200">
    <rdf:RDF>
      <cc:Work
         rdf:about="">
        <dc:format>image/svg+xml</dc:format>
        <dc:type
           rdf:resource="http://purl.org/dc/dcmitype/StillImage" />
        <dc:title>Maven2 logo</dc:title>
        <dc:date>2007. 11. 10.</dc:date>
        <dc:creator>
          <cc:Agent>
            <dc:title>Tamas Cservenak</dc:title>
          </cc:Agent>
        </dc:creator>
        <cc:license
           rdf:resource="http://creativecommons.org/licenses/by/2.5/" />
      </cc:Work>
      <cc:License
         rdf:about="http://creativecommons.org/licenses/by/2.5/">
        <cc:permits
           rdf:resource="http://web.resource.org/cc/Reproduction" />
        <cc:permits
           rdf:resource="http://web.resource.org/cc/Distribution" />
        <cc:requires
           rdf:resource="http://web.resource.org/cc/Notice" />
        <cc:requires
           rdf:resource="http://web.resource.org/cc/Attribution" />
        <cc:permits
           rdf:resource="http://web.resource.org/cc/DerivativeWorks" />
      </cc:License>
    </rdf:RDF>
  </metadata>
  <g
     inkscape:label="Layer 1"
     inkscape:groupmode="layer"
     id="layer1">
    <path
       id="text2292"
       style="font-size:84.2592926px;font-style:oblique;font-variant:normal;font-weight:bold;font-stretch:normal;text-align:start;line-height:125%;writing-mode:lr-tb;text-anchor:start;fill:#000000;fill-opacity:1;stroke:none;stroke-width:1.17026794px;stroke-linecap:butt;stroke-linejoin:miter;stroke-opacity:1;font-family:DejaVu Sans"
       d="M 340.51159,277.70489 C 336.83619,277.70491 334.05223,278.2809 332.15971,279.43286 C 330.29458,280.55744 329.36202,282.23055 329.36204,284.45222 C 329.36202,286.12535 329.91059,287.4419 331.00773,288.40187 C 332.13226,289.36187 333.66824,289.84186 335.61566,289.84185 C 338.63273,289.84186 341.15612,288.93673 343.18583,287.12646 C 345.21548,285.28879 346.57317,282.71054 347.25891,279.39172 L 347.58805,277.70489 L 340.51159,277.70489 M 363.51009,272.15069 L 358.36731,298.44058 L 343.63839,298.44058 L 344.87266,291.61096 C 342.45895,294.35378 339.90814,296.38347 337.22021,297.70002 C 334.53223,298.98914 331.61113,299.6337 328.45691,299.6337 C 324.09582,299.6337 320.62616,298.50915 318.04793,296.26004 C 315.4971,293.9835 314.2217,290.92527 314.2217,287.08532 C 314.2217,281.21571 316.48452,276.73121 321.01017,273.63181 C 325.56323,270.50503 332.11855,268.94162 340.67615,268.94159 L 349.35717,268.94159 L 349.52173,267.78961 C 349.60398,267.40565 349.64512,267.13137 349.64516,266.96677 C 349.67255,266.80223 349.68627,266.65138 349.6863,266.5142 C 349.68627,264.70398 348.82228,263.34629 347.09434,262.44112 C 345.39376,261.5086 342.85666,261.04232 339.48303,261.04229 C 336.43848,261.04232 333.48996,261.35775 330.63745,261.98856 C 327.78491,262.61944 325.02838,263.56571 322.36786,264.82737 L 324.58954,253.59554 C 327.66148,252.8276 330.802,252.25161 334.01111,251.86757 C 337.24761,251.45619 340.59384,251.25048 344.04982,251.25043 C 350.87939,251.25048 355.95359,252.42989 359.27244,254.78867 C 362.5912,257.1201 364.2506,260.68576 364.25065,265.48565 C 364.2506,266.41824 364.18203,267.44679 364.04494,268.57131 C 363.93518,269.66847 363.7569,270.86159 363.51009,272.15069 M 369.69251,252.36127 L 383.26944,252.36127 L 389.23507,284.5345 L 406.59709,252.36127 L 421.53172,252.36127 L 394.46013,298.44058 L 378.86723,298.44058 L 369.69251,252.36127 M 467.86693,277.1289 L 467.37322,279.47401 L 432.89603,279.47401 C 432.89601,279.63859 432.8823,279.88545 432.85489,280.21457 C 432.82744,280.51629 432.81373,280.74943 432.81374,280.91398 C 432.81373,283.90367 433.70514,286.13906 435.48799,287.62017 C 437.29822,289.1013 439.99989,289.84186 443.59301,289.84185 C 446.69236,289.84186 449.9563,289.37558 453.38486,288.44301 C 456.84077,287.51047 460.46128,286.12535 464.24641,284.28765 L 461.98359,295.72519 C 458.39045,297.04174 454.81108,298.01544 451.24546,298.64629 C 447.7072,299.30456 444.1004,299.6337 440.42506,299.6337 C 433.23886,299.6337 427.68467,297.9743 423.76245,294.65549 C 419.86765,291.33669 417.92025,286.64648 417.92025,280.58485 C 417.92025,277.07406 418.53738,273.67298 419.77166,270.38157 C 421.03334,267.0628 422.85731,264.03199 425.24357,261.28914 C 428.06866,257.9978 431.44232,255.50184 435.36456,253.80125 C 439.31419,252.10075 443.68898,251.25048 448.48893,251.25043 C 454.71509,251.25048 459.65215,252.90988 463.30014,256.22864 C 466.97546,259.54749 468.81314,264.01828 468.8132,269.64101 C 468.81314,270.73817 468.73086,271.90386 468.56634,273.1381 C 468.42915,274.34497 468.19601,275.67523 467.86693,277.1289 M 453.96085,270.38157 C 454.0431,270.02504 454.09795,269.66847 454.12542,269.31187 C 454.18024,268.92791 454.20766,268.55763 454.2077,268.20103 C 454.20766,266.00681 453.54939,264.26513 452.23288,262.97597 C 450.91629,261.68688 449.13346,261.04232 446.88439,261.04229 C 444.0044,261.04232 441.54958,261.83774 439.51993,263.42854 C 437.51765,264.99197 435.98167,267.30965 434.912,270.38157 L 453.96085,270.38157 M 523.04968,270.38157 L 517.57776,298.44058 L 502.8077,298.44058 L 507.45677,274.41351 C 507.78587,272.85013 508.03272,271.53358 508.19733,270.46386 C 508.38929,269.36676 508.48529,268.50277 508.48533,267.8719 C 508.48529,266.11653 507.99158,264.75883 507.00421,263.79882 C 506.04418,262.83887 504.67278,262.35887 502.88998,262.35884 C 499.84543,262.35887 497.22604,263.552 495.03182,265.93821 C 492.86497,268.29706 491.35642,271.57472 490.50617,275.77121 L 486.06281,298.44058 L 471.29275,298.44058 L 480.26175,252.36127 L 495.07296,252.36127 L 493.71527,259.1086 C 496.43062,256.44811 499.15972,254.47329 501.90257,253.18412 C 504.64535,251.89504 507.51159,251.25048 510.5013,251.25043 C 514.75261,251.25048 518.03028,252.36132 520.33429,254.58296 C 522.6382,256.80468 523.79018,259.93148 523.79024,263.96338 C 523.79018,264.84112 523.72161,265.81482 523.58453,266.88448 C 523.47476,267.95421 523.29648,269.11991 523.04968,270.38157 M 274.88226,249.56349 C 277.73862,246.01882 280.9736,243.30006 284.58721,241.4072 C 288.23509,239.51445 292.02071,238.56805 295.94407,238.56799 C 301.10618,238.56805 305.16711,239.99625 308.12687,242.85262 C 311.12085,245.67468 312.61789,249.56353 312.61799,254.5192 C 312.61789,255.55169 312.53185,256.73899 312.35988,258.08113 C 312.22212,259.38892 311.99843,260.88596 311.6888,262.57225 L 304.82306,297.7785 L 286.1875,297.7785 L 292.02079,267.63121 L 292.17566,266.85688 C 293.07035,262.58949 293.51774,259.85352 293.51783,258.64897 C 293.51774,256.7562 292.96711,255.25916 291.86592,254.15785 C 290.79899,253.05662 289.33636,252.50599 287.47805,252.50594 C 283.93326,252.50599 280.92197,253.96861 278.44419,256.89382 C 276.00067,259.78469 274.24553,263.93166 273.17874,269.33474 L 267.60355,297.7785 L 248.96799,297.7785 L 254.90452,267.63121 C 255.4207,265.05014 255.78205,263.10571 255.98859,261.79792 C 256.19503,260.45578 256.29827,259.40613 256.29832,258.64897 C 256.29827,256.72179 255.76484,255.22475 254.69804,254.15785 C 253.63113,253.05662 252.1513,252.50599 250.25854,252.50594 C 246.85144,252.50599 243.85737,254.02024 241.2763,257.04869 C 238.72958,260.0428 236.95722,264.13815 235.95923,269.33474 L 230.38404,297.7785 L 211.85172,297.7785 L 223.10533,239.96178 L 241.68927,239.96178 L 239.98575,248.4278 C 242.87655,245.15846 245.95666,242.69781 249.2261,241.04585 C 252.49545,239.394 255.9025,238.56805 259.44727,238.56799 C 263.43932,238.56805 266.86358,239.60049 269.72006,241.66531 C 272.57641,243.69583 274.29715,246.32856 274.88226,249.56349" />
    <g
       id="g2212"
       transform="translate(65.525558,-258.10677)"
       style="stroke:none">
      <path
         d="M 274.49267,637.17679 C 270.81727,637.17681 268.03332,637.7528 266.14079,638.90476 C 264.27566,640.02934 263.34311,641.70245 263.34312,643.92412 C 263.34311,645.59725 263.89167,646.9138 264.98881,647.87377 C 266.11335,648.83377 267.64932,649.31376 269.59674,649.31375 C 272.61381,649.31376 275.1372,648.40863 277.16691,646.59836 C 279.19656,644.76069 280.55426,642.18244 281.23999,638.86362 L 281.56913,637.17679 L 274.49267,637.17679 M 297.49118,631.62259 L 292.3484,657.91248 L 277.61948,657.91248 L 278.85374,651.08286 C 276.44004,653.82568 273.88922,655.85537 271.20129,657.17192 C 268.51331,658.46104 265.59221,659.1056 262.43799,659.1056 C 258.0769,659.1056 254.60725,657.98105 252.02901,655.73194 C 249.47819,653.4554 248.20278,650.39717 248.20278,646.55722 C 248.20278,640.68761 250.4656,636.20311 254.99125,633.10371 C 259.54431,629.97693 266.09963,628.41352 274.65724,628.41349 L 283.33825,628.41349 L 283.50282,627.26151 C 283.58506,626.87755 283.62621,626.60327 283.62624,626.43867 C 283.65363,626.27413 283.66735,626.12328 283.66738,625.9861 C 283.66735,624.17588 282.80336,622.81819 281.07542,621.91302 C 279.37485,620.9805 276.83774,620.51422 273.46411,620.51419 C 270.41956,620.51422 267.47104,620.82965 264.61853,621.46046 C 261.76599,622.09134 259.00946,623.03761 256.34894,624.29927 L 258.57062,613.06744 C 261.64256,612.2995 264.78308,611.72351 267.99219,611.33947 C 271.22869,610.92809 274.57492,610.72238 278.0309,610.72233 C 284.86047,610.72238 289.93468,611.90179 293.25353,614.26057 C 296.57228,616.592 298.23168,620.15766 298.23174,624.95755 C 298.23168,625.89014 298.16311,626.91869 298.02602,628.04321 C 297.91626,629.14037 297.73798,630.33349 297.49118,631.62259"
         style="font-size:84.2592926px;font-style:oblique;font-variant:normal;font-weight:bold;font-stretch:normal;text-align:start;line-height:125%;writing-mode:lr-tb;text-anchor:start;fill:#ff6600;fill-opacity:1;stroke:none;stroke-width:1.17026794px;stroke-linecap:butt;stroke-linejoin:miter;stroke-opacity:1;font-family:DejaVu Sans"
         id="path6200" />
      <path
         d="M 303.39939,611.83317 L 316.97632,611.83317 L 322.94195,644.0064 L 340.30397,611.83317 L 355.2386,611.83317 L 328.16701,657.91248 L 312.5741,657.91248 L 303.39939,611.83317 M 400.5005,636.6008 L 400.0068,638.94591 L 365.52961,638.94591 C 365.52959,639.11049 365.51587,639.35735 365.48846,639.68647 C 365.46102,639.98819 365.4473,640.22133 365.44732,640.38588 C 365.4473,643.37557 366.33872,645.61096 368.12157,647.09207 C 369.9318,648.5732 372.63347,649.31376 376.22659,649.31375 C 379.32594,649.31376 382.58988,648.84748 386.01844,647.91491 C 389.47434,646.98237 393.09486,645.59725 396.87999,643.75955 L 394.61716,655.19709 C 391.02403,656.51364 387.44466,657.48734 383.87904,658.11819 C 380.34078,658.77646 376.73398,659.1056 373.05863,659.1056 C 365.87244,659.1056 360.31824,657.4462 356.39603,654.12739 C 352.50123,650.80859 350.55383,646.11838 350.55383,640.05675 C 350.55383,636.54596 351.17096,633.14488 352.40523,629.85347 C 353.66692,626.5347 355.49089,623.50389 357.87715,620.76104 C 360.70224,617.4697 364.0759,614.97374 367.99814,613.27315 C 371.94777,611.57265 376.32256,610.72238 381.12251,610.72233 C 387.34866,610.72238 392.28573,612.38178 395.93372,615.70054 C 399.60904,619.01939 401.44672,623.49018 401.44677,629.11291 C 401.44672,630.21007 401.36444,631.37576 401.19992,632.61 C 401.06273,633.81687 400.82959,635.14713 400.5005,636.6008 M 386.59443,629.85347 C 386.67667,629.49694 386.73153,629.14037 386.759,628.78377 C 386.81381,628.39981 386.84124,628.02953 386.84128,627.67293 C 386.84124,625.47871 386.18297,623.73703 384.86646,622.44787 C 383.54987,621.15878 381.76704,620.51422 379.51796,620.51419 C 376.63798,620.51422 374.18316,621.30964 372.15351,622.90044 C 370.15123,624.46387 368.61525,626.78155 367.54558,629.85347 L 386.59443,629.85347 M 456.20814,629.85347 L 450.73623,657.91248 L 435.96616,657.91248 L 440.61524,633.88541 C 440.94433,632.32203 441.19119,631.00548 441.3558,629.93576 C 441.54775,628.83866 441.64375,627.97467 441.64379,627.3438 C 441.64375,625.58843 441.15005,624.23073 440.16267,623.27072 C 439.20265,622.31077 437.83124,621.83077 436.04845,621.83074 C 433.00389,621.83077 430.38451,623.0239 428.19028,625.41011 C 426.02343,627.76896 424.51489,631.04662 423.66464,635.24311 L 419.22128,657.91248 L 404.45121,657.91248 L 413.42022,611.83317 L 428.23142,611.83317 L 426.87373,618.5805 C 429.58909,615.92001 432.31819,613.94519 435.06103,612.65602 C 437.80381,611.36694 440.67005,610.72238 443.65976,610.72233 C 447.91108,610.72238 451.18874,611.83322 453.49275,614.05486 C 455.79667,616.27658 456.94865,619.40338 456.9487,623.43528 C 456.94865,624.31302 456.88008,625.28672 456.74299,626.35638 C 456.63322,627.42611 456.45494,628.59181 456.20814,629.85347 M 208.86336,609.03542 C 211.71971,605.49075 214.95469,602.77199 218.56831,600.87913 C 222.21619,598.98638 226.0018,598.03998 229.92516,598.03992 C 235.08728,598.03998 239.14821,599.46819 242.10797,602.32455 C 245.10195,605.14661 246.59899,609.03547 246.59909,613.99114 C 246.59899,615.02362 246.51295,616.21093 246.34098,617.55306 C 246.20322,618.86086 245.97952,620.35789 245.66989,622.04418 L 238.80416,657.25043 L 220.16859,657.25043 L 226.00189,627.10314 L 226.15675,626.32881 C 227.05145,622.06142 227.49884,619.32545 227.49893,618.1209 C 227.49884,616.22813 226.94821,614.73109 225.84702,613.62978 C 224.78008,612.52855 223.31746,611.97792 221.45915,611.97787 C 217.91435,611.97792 214.90307,613.44054 212.42528,616.36575 C 209.98177,619.25662 208.22662,623.40359 207.15983,628.80667 L 201.58465,657.25043 L 182.94908,657.25043 L 188.88562,627.10314 C 189.4018,624.52207 189.76315,622.57764 189.96968,621.26985 C 190.17613,619.92771 190.27937,618.87806 190.27942,618.1209 C 190.27937,616.19372 189.74594,614.69668 188.67913,613.62978 C 187.61223,612.52855 186.1324,611.97792 184.23964,611.97787 C 180.83254,611.97792 177.83846,613.49217 175.2574,616.52062 C 172.71068,619.51473 170.93832,623.61008 169.94032,628.80667 L 164.36514,657.25043 L 145.83282,657.25043 L 157.08643,599.43371 L 175.67037,599.43371 L 173.96684,607.89973 C 176.85765,604.63039 179.93776,602.16974 183.20719,600.51778 C 186.47655,598.86593 189.8836,598.03998 193.42836,598.03992 C 197.42041,598.03998 200.84468,599.07242 203.70115,601.13724 C 206.55751,603.16776 208.27825,605.80049 208.86336,609.03542"
         style="font-size:84.2592926px;font-style:oblique;font-variant:normal;font-weight:bold;font-stretch:normal;text-align:start;line-height:125%;writing-mode:lr-tb;text-anchor:start;fill:#000000;fill-opacity:1;stroke:none;stroke-width:1.17026794px;stroke-linecap:butt;stroke-linejoin:miter;stroke-opacity:1;font-family:DejaVu Sans"
         id="path6196" />
    </g>
    <path
       d="M 340.51159,174.622 C 336.83619,174.62202 334.05223,175.19801 332.15971,176.34997 C 330.29458,177.47455 329.36202,179.14766 329.36204,181.36933 C 329.36202,183.04246 329.91059,184.35901 331.00773,185.31898 C 332.13226,186.27898 333.66824,186.75897 335.61566,186.75896 C 338.63273,186.75897 341.15612,185.85384 343.18583,184.04357 C 345.21548,182.2059 346.57317,179.62765 347.25891,176.30883 L 347.58805,174.622 L 340.51159,174.622 M 363.51009,169.0678 L 358.36731,195.35769 L 343.63839,195.35769 L 344.87266,188.52807 C 342.45895,191.27089 339.90814,193.30058 337.22021,194.61713 C 334.53223,195.90625 331.61113,196.55081 328.45691,196.55081 C 324.09582,196.55081 320.62616,195.42626 318.04793,193.17715 C 315.4971,190.90061 314.2217,187.84238 314.2217,184.00243 C 314.2217,178.13282 316.48452,173.64832 321.01017,170.54892 C 325.56323,167.42214 332.11855,165.85873 340.67615,165.8587 L 349.35717,165.8587 L 349.52173,164.70672 C 349.60398,164.32276 349.64512,164.04848 349.64516,163.88388 C 349.67255,163.71934 349.68627,163.56849 349.6863,163.43131 C 349.68627,161.62109 348.82228,160.2634 347.09434,159.35823 C 345.39376,158.42571 342.85666,157.95943 339.48303,157.9594 C 336.43848,157.95943 333.48996,158.27486 330.63745,158.90567 C 327.78491,159.53655 325.02838,160.48282 322.36786,161.74448 L 324.58954,150.51265 C 327.66148,149.74471 330.802,149.16872 334.01111,148.78468 C 337.24761,148.3733 340.59384,148.16759 344.04982,148.16754 C 350.87939,148.16759 355.95359,149.347 359.27244,151.70578 C 362.5912,154.03721 364.2506,157.60287 364.25065,162.40276 C 364.2506,163.33535 364.18203,164.3639 364.04494,165.48842 C 363.93518,166.58558 363.7569,167.7787 363.51009,169.0678 M 369.69251,149.27838 L 383.26944,149.27838 L 389.23507,181.45161 L 406.59709,149.27838 L 421.53172,149.27838 L 394.46013,195.35769 L 378.86723,195.35769 L 369.69251,149.27838 M 467.86693,174.04601 L 467.37322,176.39112 L 432.89603,176.39112 C 432.89601,176.5557 432.8823,176.80256 432.85489,177.13168 C 432.82744,177.4334 432.81373,177.66654 432.81374,177.83109 C 432.81373,180.82078 433.70514,183.05617 435.48799,184.53728 C 437.29822,186.01841 439.99989,186.75897 443.59301,186.75896 C 446.69236,186.75897 449.9563,186.29269 453.38486,185.36012 C 456.84077,184.42758 460.46128,183.04246 464.24641,181.20476 L 461.98359,192.6423 C 458.39045,193.95885 454.81108,194.93255 451.24546,195.5634 C 447.7072,196.22167 444.1004,196.55081 440.42506,196.55081 C 433.23886,196.55081 427.68467,194.89141 423.76245,191.5726 C 419.86765,188.2538 417.92025,183.56359 417.92025,177.50196 C 417.92025,173.99117 418.53738,170.59009 419.77166,167.29868 C 421.03334,163.97991 422.85731,160.9491 425.24357,158.20625 C 428.06866,154.91491 431.44232,152.41895 435.36456,150.71836 C 439.31419,149.01786 443.68898,148.16759 448.48893,148.16754 C 454.71509,148.16759 459.65215,149.82699 463.30014,153.14575 C 466.97546,156.4646 468.81314,160.93539 468.8132,166.55812 C 468.81314,167.65528 468.73086,168.82097 468.56634,170.05521 C 468.42915,171.26208 468.19601,172.59234 467.86693,174.04601 M 453.96085,167.29868 C 454.0431,166.94215 454.09795,166.58558 454.12542,166.22898 C 454.18024,165.84502 454.20766,165.47474 454.2077,165.11814 C 454.20766,162.92392 453.54939,161.18224 452.23288,159.89308 C 450.91629,158.60399 449.13346,157.95943 446.88439,157.9594 C 444.0044,157.95943 441.54958,158.75485 439.51993,160.34565 C 437.51765,161.90908 435.98167,164.22676 434.912,167.29868 L 453.96085,167.29868 M 523.04968,167.29868 L 517.57776,195.35769 L 502.8077,195.35769 L 507.45677,171.33062 C 507.78587,169.76724 508.03272,168.45069 508.19733,167.38097 C 508.38929,166.28387 508.48529,165.41988 508.48533,164.78901 C 508.48529,163.03364 507.99158,161.67594 507.00421,160.71593 C 506.04418,159.75598 504.67278,159.27598 502.88998,159.27595 C 499.84543,159.27598 497.22604,160.46911 495.03182,162.85532 C 492.86497,165.21417 491.35642,168.49183 490.50617,172.68832 L 486.06281,195.35769 L 471.29275,195.35769 L 480.26175,149.27838 L 495.07296,149.27838 L 493.71527,156.02571 C 496.43062,153.36522 499.15972,151.3904 501.90257,150.10123 C 504.64535,148.81215 507.51159,148.16759 510.5013,148.16754 C 514.75261,148.16759 518.03028,149.27843 520.33429,151.50007 C 522.6382,153.72179 523.79018,156.84859 523.79024,160.88049 C 523.79018,161.75823 523.72161,162.73193 523.58453,163.80159 C 523.47476,164.87132 523.29648,166.03702 523.04968,167.29868 M 274.88226,146.4806 C 277.73862,142.93593 280.9736,140.21717 284.58721,138.32431 C 288.23509,136.43156 292.02071,135.48516 295.94407,135.4851 C 301.10618,135.48516 305.16711,136.91336 308.12687,139.76973 C 311.12085,142.59179 312.61789,146.48064 312.61799,151.43631 C 312.61789,152.4688 312.53185,153.6561 312.35988,154.99824 C 312.22212,156.30603 311.99843,157.80307 311.6888,159.48936 L 304.82306,194.69561 L 286.1875,194.69561 L 292.02079,164.54832 L 292.17566,163.77399 C 293.07035,159.5066 293.51774,156.77063 293.51783,155.56608 C 293.51774,153.67331 292.96711,152.17627 291.86592,151.07496 C 290.79899,149.97373 289.33636,149.4231 287.47805,149.42305 C 283.93326,149.4231 280.92197,150.88572 278.44419,153.81093 C 276.00067,156.7018 274.24553,160.84877 273.17874,166.25185 L 267.60355,194.69561 L 248.96799,194.69561 L 254.90452,164.54832 C 255.4207,161.96725 255.78205,160.02282 255.98859,158.71503 C 256.19503,157.37289 256.29827,156.32324 256.29832,155.56608 C 256.29827,153.6389 255.76484,152.14186 254.69804,151.07496 C 253.63113,149.97373 252.1513,149.4231 250.25854,149.42305 C 246.85144,149.4231 243.85737,150.93735 241.2763,153.9658 C 238.72958,156.95991 236.95722,161.05526 235.95923,166.25185 L 230.38404,194.69561 L 211.85172,194.69561 L 223.10533,136.87889 L 241.68927,136.87889 L 239.98575,145.34491 C 242.87655,142.07557 245.95666,139.61492 249.2261,137.96296 C 252.49545,136.31111 255.9025,135.48516 259.44727,135.4851 C 263.43932,135.48516 266.86358,136.5176 269.72006,138.58242 C 272.57641,140.61294 274.29715,143.24567 274.88226,146.4806"
       style="font-size:84.2592926px;font-style:oblique;font-variant:normal;font-weight:bold;font-stretch:normal;text-align:start;line-height:125%;writing-mode:lr-tb;text-anchor:start;fill:none;fill-opacity:1;stroke:#000000;stroke-width:1.17026794px;stroke-linecap:butt;stroke-linejoin:miter;stroke-opacity:1;font-family:DejaVu Sans"
       id="path2216" />
  </g>
</svg>
